<?xml version="1.0" encoding="UTF-8" standalone="no"?>
<!-- Created with Inkscape (http://www.inkscape.org/) -->

<svg
   xmlns:dc="http://purl.org/dc/elements/1.1/"
   xmlns:cc="http://creativecommons.org/ns#"
   xmlns:rdf="http://www.w3.org/1999/02/22-rdf-syntax-ns#"
   xmlns:svg="http://www.w3.org/2000/svg"
   xmlns="http://www.w3.org/2000/svg"
   xmlns:sodipodi="http://sodipodi.sourceforge.net/DTD/sodipodi-0.dtd"
   xmlns:inkscape="http://www.inkscape.org/namespaces/inkscape"
   width="58.949539mm"
   height="26.241795mm"
   viewBox="0 0 208.87632 92.982736"
   id="svg2"
   version="1.1"
   inkscape:version="0.91 r13725"
   sodipodi:docname="logo_bd.svg">
  <defs
     id="defs4" />
  <sodipodi:namedview
     id="base"
     pagecolor="#ffffff"
     bordercolor="#666666"
     borderopacity="1.0"
     inkscape:pageopacity="0.0"
     inkscape:pageshadow="2"
     inkscape:zoom="0.98994949"
     inkscape:cx="-268.11706"
     inkscape:cy="74.375595"
     inkscape:document-units="px"
     inkscape:current-layer="layer1"
     showgrid="false"
     fit-margin-top="-0.2"
     fit-margin-left="0"
     fit-margin-right="0"
     fit-margin-bottom="0"
     inkscape:window-width="1366"
     inkscape:window-height="714"
     inkscape:window-x="0"
     inkscape:window-y="0"
     inkscape:window-maximized="1" />
  <metadata
     id="metadata7">
    <rdf:RDF>
      <cc:Work
         rdf:about="">
        <dc:format>image/svg+xml</dc:format>
        <dc:type
           rdf:resource="http://purl.org/dc/dcmitype/StillImage" />
        <dc:title></dc:title>
      </cc:Work>
    </rdf:RDF>
  </metadata>
  <g
     inkscape:label="Camada 1"
     inkscape:groupmode="layer"
     id="layer1"
     transform="translate(-480.44015,-563.77835)">
    <path
       inkscape:connector-curvature="0"
       style="font-style:normal;font-variant:normal;font-weight:normal;font-stretch:normal;font-size:80px;line-height:125%;font-family:Dyuthi;-inkscape-font-specification:Dyuthi;letter-spacing:0px;word-spacing:0px;display:inline;fill:#000000;fill-opacity:1;fill-rule:evenodd;stroke:none;stroke-width:1px;stroke-linecap:butt;stroke-linejoin:miter;stroke-opacity:1"
       d="m 489.12662,563.06969 6.71681,33.58789 2.8281,38.18359 0.707,21.91992 0,-0.70703 1.7676,-32.52734 3.1817,-27.22266 8.4863,-31.46679 -23.68751,-1.76758 z"
       id="path4157-7-1" />
    <path
       inkscape:connector-curvature="0"
       style="font-style:normal;font-variant:normal;font-weight:normal;font-stretch:normal;font-size:80px;line-height:125%;font-family:Dyuthi;-inkscape-font-specification:Dyuthi;letter-spacing:0px;word-spacing:0px;display:inline;fill:none;fill-opacity:1;fill-rule:evenodd;stroke:#800000;stroke-width:3;stroke-linecap:butt;stroke-linejoin:round;stroke-miterlimit:4;stroke-dasharray:none;stroke-dashoffset:0;stroke-opacity:1"
       d="m 499.14223,654.367 c 1.5524,0.26954 3.2203,-0.23887 4.3584,-1.32852 1.138,-1.08964 1.7184,-2.73385 1.5166,-4.29648 -0.2049,-1.58673 -1.1621,-3.00101 -2.3634,-4.05763 -1.2014,-1.05663 -2.6406,-1.80009 -4.0752,-2.50822 -1.4347,-0.70812 -2.8931,-1.39906 -4.1631,-2.372 -1.2701,-0.97293 -2.356,-2.2676 -2.7733,-3.81215 -0.3214,-1.18965 -0.2262,-2.47432 0.1836,-3.63647 0.4099,-1.16216 1.1245,-2.20448 1.9985,-3.07314 1.7481,-1.73733 4.0732,-2.75994 6.3937,-3.59016 2.3206,-0.83023 4.7155,-1.51603 6.8562,-2.73737 1.0704,-0.61068 2.072,-1.35565 2.8982,-2.27 0.8261,-0.91435 1.4735,-2.00319 1.7948,-3.19286 0.396,-1.46616 0.282,-3.05009 -0.2267,-4.48106 -0.5087,-1.43097 -1.4003,-2.71127 -2.498,-3.76086 -2.1953,-2.09918 -5.1331,-3.24571 -8.0775,-3.99149 -2.9445,-0.74577 -5.9742,-1.14252 -8.885,-2.01028 -2.91081,-0.86775 -5.77131,-2.27484 -7.68781,-4.63131 -1.4674,-1.80429 -2.3,-4.09625 -2.4326,-6.41813 -0.1325,-2.32188 0.4217,-4.66573 1.4911,-6.73089 2.139,-4.13032 6.2523,-7.01434 10.70171,-8.3702 4.4493,-1.35586 9.2201,-1.31142 13.8272,-0.67208 4.6072,0.63933 9.1117,1.85534 13.6626,2.8163 4.5804,0.96717 9.2151,1.67699 13.875,2.125 l 0,0"
       id="path5615-5-4" />
    <path
       style="color:#000000;font-style:normal;font-variant:normal;font-weight:normal;font-stretch:normal;font-size:80px;line-height:125%;font-family:Dyuthi;-inkscape-font-specification:Dyuthi;text-indent:0;text-align:start;text-decoration:none;text-decoration-line:none;text-decoration-style:solid;text-decoration-color:#000000;letter-spacing:0px;word-spacing:0px;text-transform:none;direction:ltr;block-progression:tb;writing-mode:lr-tb;baseline-shift:baseline;text-anchor:start;white-space:normal;clip-rule:nonzero;display:inline;overflow:visible;visibility:visible;opacity:1;isolation:auto;mix-blend-mode:normal;color-interpolation:sRGB;color-interpolation-filters:linearRGB;solid-color:#000000;solid-opacity:1;fill:#000000;fill-opacity:1;fill-rule:evenodd;stroke:none;stroke-width:3;stroke-linecap:butt;stroke-linejoin:round;stroke-miterlimit:4;stroke-dasharray:none;stroke-dashoffset:0;stroke-opacity:1;color-rendering:auto;image-rendering:auto;shape-rendering:auto;text-rendering:auto;enable-background:accumulate"
       d="m 496.29263,602.71517 0.2305,3.1211 c 1.3911,0.2792 2.7581,0.5436 4.0742,0.87695 0.828,0.20972 1.64,0.45575 2.4278,0.73828 l 0.3574,-3.05273 c -0.6833,-0.22275 -1.3689,-0.42153 -2.0488,-0.59375 -1.7098,-0.43306 -3.3981,-0.75258 -5.0411,-1.08985 z"
       id="path9125"
       inkscape:connector-curvature="0" />
    <path
       style="color:#000000;font-style:normal;font-variant:normal;font-weight:normal;font-stretch:normal;font-size:80px;line-height:125%;font-family:Dyuthi;-inkscape-font-specification:Dyuthi;text-indent:0;text-align:start;text-decoration:none;text-decoration-line:none;text-decoration-style:solid;text-decoration-color:#000000;letter-spacing:0px;word-spacing:0px;text-transform:none;direction:ltr;block-progression:tb;writing-mode:lr-tb;baseline-shift:baseline;text-anchor:start;white-space:normal;clip-rule:nonzero;display:inline;overflow:visible;visibility:visible;opacity:1;isolation:auto;mix-blend-mode:normal;color-interpolation:sRGB;color-interpolation-filters:linearRGB;solid-color:#000000;solid-opacity:1;fill:#000000;fill-opacity:1;fill-rule:evenodd;stroke:none;stroke-width:3;stroke-linecap:butt;stroke-linejoin:round;stroke-miterlimit:4;stroke-dasharray:none;stroke-dashoffset:0;stroke-opacity:1;color-rendering:auto;image-rendering:auto;shape-rendering:auto;text-rendering:auto;enable-background:accumulate"
       d="m 498.85903,640.6351 0.1094,3.41992 c 0.3568,0.18736 0.6993,0.37855 1.0313,0.57617 l 0.1797,-3.32813 c -0.3153,-0.16218 -0.6298,-0.32074 -0.9375,-0.47265 -0.133,-0.0656 -0.2515,-0.13047 -0.3829,-0.19531 z"
       id="path9121"
       inkscape:connector-curvature="0" />
    <text
       xml:space="preserve"
       style="font-style:normal;font-variant:normal;font-weight:normal;font-stretch:normal;font-size:40px;line-height:125%;font-family:sans-serif;-inkscape-font-specification:Dyuthi;letter-spacing:0px;word-spacing:0px;display:inline;fill:#000000;fill-opacity:1;stroke:none;stroke-width:1px;stroke-linecap:butt;stroke-linejoin:miter;stroke-opacity:1"
       x="513.6524"
       y="620.78723"
       id="text4355-7"
       sodipodi:linespacing="125%"><tspan
         sodipodi:role="line"
         id="tspan4357-3"
         x="513.6524"
         y="620.78723"
         style="font-style:normal;font-variant:normal;font-weight:200;font-stretch:normal;font-family:Roboto;-inkscape-font-specification:'Roboto Ultra-Light';fill:#000000">BDOdonto</tspan></text>
  </g>
</svg>
