<?xml version="1.0" encoding="UTF-8" standalone="no"?>
<!-- Created with Inkscape (http://www.inkscape.org/) -->

<svg
   xmlns:dc="http://purl.org/dc/elements/1.1/"
   xmlns:cc="http://creativecommons.org/ns#"
   xmlns:rdf="http://www.w3.org/1999/02/22-rdf-syntax-ns#"
   xmlns:svg="http://www.w3.org/2000/svg"
   xmlns="http://www.w3.org/2000/svg"
   xmlns:sodipodi="http://sodipodi.sourceforge.net/DTD/sodipodi-0.dtd"
   xmlns:inkscape="http://www.inkscape.org/namespaces/inkscape"
   width="58.949539mm"
   height="26.241795mm"
   viewBox="0 0 208.87632 92.982736"
   id="svg2"
   version="1.1"
   inkscape:version="0.91 r13725"
   sodipodi:docname="logo_red.svg">
  <defs
     id="defs4" />
  <sodipodi:namedview
     id="base"
     pagecolor="#ffffff"
     bordercolor="#666666"
     borderopacity="1.0"
     inkscape:pageopacity="0.0"
     inkscape:pageshadow="2"
     inkscape:zoom="3.959798"
     inkscape:cx="54.407424"
     inkscape:cy="29.123983"
     inkscape:document-units="px"
     inkscape:current-layer="layer1"
     showgrid="false"
     fit-margin-top="-0.2"
     fit-margin-left="0"
     fit-margin-right="0"
     fit-margin-bottom="0"
     inkscape:window-width="1366"
     inkscape:window-height="714"
     inkscape:window-x="0"
     inkscape:window-y="0"
     inkscape:window-maximized="1" />
  <metadata
     id="metadata7">
    <rdf:RDF>
      <cc:Work
         rdf:about="">
        <dc:format>image/svg+xml</dc:format>
        <dc:type
           rdf:resource="http://purl.org/dc/dcmitype/StillImage" />
        <dc:title></dc:title>
      </cc:Work>
    </rdf:RDF>
  </metadata>
  <g
     inkscape:label="Camada 1"
     inkscape:groupmode="layer"
     id="layer1"
     transform="translate(-480.44015,-563.77835)">
    <path
       inkscape:connector-curvature="0"
       style="font-style:normal;font-variant:normal;font-weight:normal;font-stretch:normal;font-size:80px;line-height:125%;font-family:Dyuthi;-inkscape-font-specification:Dyuthi;letter-spacing:0px;word-spacing:0px;display:inline;fill:#800000;fill-opacity:1;fill-rule:evenodd;stroke:none;stroke-width:1px;stroke-linecap:butt;stroke-linejoin:miter;stroke-opacity:1"
       d="m 489.12662,563.06969 6.71681,33.58789 2.8281,38.18359 0.707,21.91992 0,-0.70703 1.7676,-32.52734 3.1817,-27.22266 8.4863,-31.46679 -23.68751,-1.76758 z"
       id="path4157-7-1" />
    <path
       inkscape:connector-curvature="0"
       style="font-style:normal;font-variant:normal;font-weight:normal;font-stretch:normal;font-size:80px;line-height:125%;font-family:Dyuthi;-inkscape-font-specification:Dyuthi;letter-spacing:0px;word-spacing:0px;display:inline;fill:none;fill-opacity:1;fill-rule:evenodd;stroke:#800000;stroke-width:3;stroke-linecap:butt;stroke-linejoin:round;stroke-miterlimit:4;stroke-dasharray:none;stroke-dashoffset:0;stroke-opacity:1"
       d="m 499.14223,654.367 c 1.5524,0.26954 3.2203,-0.23887 4.3584,-1.32852 1.138,-1.08964 1.7184,-2.73385 1.5166,-4.29648 -0.2049,-1.58673 -1.1621,-3.00101 -2.3634,-4.05763 -1.2014,-1.05663 -2.6406,-1.80009 -4.0752,-2.50822 -1.4347,-0.70812 -2.8931,-1.39906 -4.1631,-2.372 -1.2701,-0.97293 -2.356,-2.2676 -2.7733,-3.81215 -0.3214,-1.18965 -0.2262,-2.47432 0.1836,-3.63647 0.4099,-1.16216 1.1245,-2.20448 1.9985,-3.07314 1.7481,-1.73733 4.0732,-2.75994 6.3937,-3.59016 2.3206,-0.83023 4.7155,-1.51603 6.8562,-2.73737 1.0704,-0.61068 2.072,-1.35565 2.8982,-2.27 0.8261,-0.91435 1.4735,-2.00319 1.7948,-3.19286 0.396,-1.46616 0.282,-3.05009 -0.2267,-4.48106 -0.5087,-1.43097 -1.4003,-2.71127 -2.498,-3.76086 -2.1953,-2.09918 -5.1331,-3.24571 -8.0775,-3.99149 -2.9445,-0.74577 -5.9742,-1.14252 -8.885,-2.01028 -2.91081,-0.86775 -5.77131,-2.27484 -7.68781,-4.63131 -1.4674,-1.80429 -2.3,-4.09625 -2.4326,-6.41813 -0.1325,-2.32188 0.4217,-4.66573 1.4911,-6.73089 2.139,-4.13032 6.2523,-7.01434 10.70171,-8.3702 4.4493,-1.35586 9.2201,-1.31142 13.8272,-0.67208 4.6072,0.63933 9.1117,1.85534 13.6626,2.8163 4.5804,0.96717 9.2151,1.67699 13.875,2.125 l 0,0"
       id="path5615-5-4" />
    <path
       style="color:#000000;font-style:normal;font-variant:normal;font-weight:normal;font-stretch:normal;font-size:80px;line-height:125%;font-family:Dyuthi;-inkscape-font-specification:Dyuthi;text-indent:0;text-align:start;text-decoration:none;text-decoration-line:none;text-decoration-style:solid;text-decoration-color:#000000;letter-spacing:0px;word-spacing:0px;text-transform:none;direction:ltr;block-progression:tb;writing-mode:lr-tb;baseline-shift:baseline;text-anchor:start;white-space:normal;clip-rule:nonzero;display:inline;overflow:visible;visibility:visible;opacity:1;isolation:auto;mix-blend-mode:normal;color-interpolation:sRGB;color-interpolation-filters:linearRGB;solid-color:#000000;solid-opacity:1;fill:#800000;fill-opacity:1;fill-rule:evenodd;stroke:none;stroke-width:3;stroke-linecap:butt;stroke-linejoin:round;stroke-miterlimit:4;stroke-dasharray:none;stroke-dashoffset:0;stroke-opacity:1;color-rendering:auto;image-rendering:auto;shape-rendering:auto;text-rendering:auto;enable-background:accumulate"
       d="m 496.29263,602.71517 0.2305,3.1211 c 1.3911,0.2792 2.7581,0.5436 4.0742,0.87695 0.828,0.20972 1.64,0.45575 2.4278,0.73828 l 0.3574,-3.05273 c -0.6833,-0.22275 -1.3689,-0.42153 -2.0488,-0.59375 -1.7098,-0.43306 -3.3981,-0.75258 -5.0411,-1.08985 z"
       id="path9125"
       inkscape:connector-curvature="0" />
    <path
       style="color:#000000;font-style:normal;font-variant:normal;font-weight:normal;font-stretch:normal;font-size:80px;line-height:125%;font-family:Dyuthi;-inkscape-font-specification:Dyuthi;text-indent:0;text-align:start;text-decoration:none;text-decoration-line:none;text-decoration-style:solid;text-decoration-color:#000000;letter-spacing:0px;word-spacing:0px;text-transform:none;direction:ltr;block-progression:tb;writing-mode:lr-tb;baseline-shift:baseline;text-anchor:start;white-space:normal;clip-rule:nonzero;display:inline;overflow:visible;visibility:visible;opacity:1;isolation:auto;mix-blend-mode:normal;color-interpolation:sRGB;color-interpolation-filters:linearRGB;solid-color:#000000;solid-opacity:1;fill:#800000;fill-opacity:1;fill-rule:evenodd;stroke:none;stroke-width:3;stroke-linecap:butt;stroke-linejoin:round;stroke-miterlimit:4;stroke-dasharray:none;stroke-dashoffset:0;stroke-opacity:1;color-rendering:auto;image-rendering:auto;shape-rendering:auto;text-rendering:auto;enable-background:accumulate"
       d="m 498.85903,640.6351 0.1094,3.41992 c 0.3568,0.18736 0.6993,0.37855 1.0313,0.57617 l 0.1797,-3.32813 c -0.3153,-0.16218 -0.6298,-0.32074 -0.9375,-0.47265 -0.133,-0.0656 -0.2515,-0.13047 -0.3829,-0.19531 z"
       id="path9121"
       inkscape:connector-curvature="0" />
    <g
       style="font-style:normal;font-variant:normal;font-weight:normal;font-stretch:normal;font-size:40px;line-height:125%;font-family:sans-serif;-inkscape-font-specification:Dyuthi;letter-spacing:0px;word-spacing:0px;display:inline;fill:#800000;fill-opacity:1;stroke:none;stroke-width:1px;stroke-linecap:butt;stroke-linejoin:miter;stroke-opacity:1"
       id="text4355-7">
      <path
         d="m 517.55865,620.78723 0,-28.4375 7.48047,0 q 4.41407,0 6.85547,1.81641 2.44141,1.8164 2.44141,5.46875 0,2.38281 -1.17188,4.0625 -1.15234,1.67969 -3.28125,2.24609 l -0.0195,0.11719 q 2.51953,0.33203 4.23828,2.32422 1.71875,1.97265 1.71875,4.57031 0,3.73047 -2.42187,5.78125 -2.40235,2.05078 -6.36719,2.05078 l -9.47266,0 z m 1.05469,-14.04297 0,12.98828 8.41797,0 q 3.59375,0 5.66406,-1.77734 2.07032,-1.77734 2.07032,-4.96094 0,-2.8125 -2.08985,-4.53125 -2.08984,-1.71875 -5.64453,-1.71875 l -8.41797,0 z m 0,-1.05468 7.1875,0 q 3.69141,-0.0586 5.56641,-1.58204 1.89453,-1.52343 1.89453,-4.55078 0,-3.04687 -2.08984,-4.58984 -2.07032,-1.5625 -6.13282,-1.5625 l -6.42578,0 0,12.28516 z"
         style="font-style:normal;font-variant:normal;font-weight:200;font-stretch:normal;font-family:Roboto;-inkscape-font-specification:'Roboto Ultra-Light';fill:#800000"
         id="path4140" />
      <path
         d="m 541.62115,620.78723 0,-28.4375 8.45704,0 q 4.90234,0 8.32031,3.51563 3.41797,3.51562 3.41797,8.96484 l 0,3.47656 q 0,5.46875 -3.41797,8.98438 -3.41797,3.49609 -8.32031,3.49609 l -8.45704,0 z m 1.05469,-27.38281 0,26.32812 7.40235,0 q 4.43359,0 7.55859,-3.24218 3.125,-3.24219 3.125,-8.1836 l 0,-3.53515 q 0,-4.88282 -3.125,-8.125 -3.125,-3.24219 -7.55859,-3.24219 l -7.40235,0 z"
         style="font-style:normal;font-variant:normal;font-weight:200;font-stretch:normal;font-family:Roboto;-inkscape-font-specification:'Roboto Ultra-Light';fill:#800000"
         id="path4142" />
      <path
         d="m 588.55475,608.69739 q 0,5.76172 -2.85156,9.14062 -2.85157,3.35938 -7.85157,3.35938 -5.01953,0 -7.89062,-3.35938 -2.85156,-3.3789 -2.85156,-9.14062 l 0,-4.25781 q 0,-5.74219 2.83203,-9.1211 2.85156,-3.3789 7.87109,-3.3789 5,0 7.87109,3.3789 2.8711,3.37891 2.8711,9.1211 l 0,4.25781 z m -1.05469,-4.29688 q 0,-5.23437 -2.51953,-8.32031 -2.51953,-3.08594 -7.16797,-3.08594 -4.62891,0 -7.12891,3.08594 -2.5,3.08594 -2.5,8.32031 l 0,4.29688 q 0,5.27344 2.5,8.35937 2.51954,3.08594 7.16797,3.08594 4.64844,0 7.14844,-3.06641 2.5,-3.08593 2.5,-8.3789 l 0,-4.29688 z"
         style="font-style:normal;font-variant:normal;font-weight:200;font-stretch:normal;font-family:Roboto;-inkscape-font-specification:'Roboto Ultra-Light';fill:#800000"
         id="path4144" />
      <path
         d="m 593.53522,610.20129 q 0,-5.01953 2.10937,-7.96875 2.10938,-2.96875 5.85938,-2.96875 2.46093,0 4.25781,1.11329 1.81641,1.09375 2.89062,3.00781 l 0,-13.06641 1.05469,0 0,15.83985 q 0,0.0391 0,0.0586 0,0.0195 0.0195,0.0195 l 0,8.61328 q -0.0195,0.0391 -0.0195,0.0586 0,0.0195 0,0.0391 l 0,5.83984 -1.01562,0 -0.0391,-3.26172 q -1.05468,1.69922 -2.89062,2.69532 -1.83594,0.97656 -4.29688,0.97656 -3.73046,0 -5.83984,-2.85156 -2.08984,-2.85157 -2.08984,-7.73438 l 0,-0.41016 z m 1.09375,0.41016 q 0,4.375 1.71875,6.95313 1.73828,2.57812 5.09765,2.57812 2.75391,0 4.57032,-1.23047 1.8164,-1.25 2.63671,-3.32031 l 0,-10 q -0.78125,-2.24609 -2.48046,-3.75 -1.67969,-1.52344 -4.6875,-1.52344 -3.35938,0 -5.11719,2.75391 -1.73828,2.73437 -1.73828,7.1289 l 0,0.41016 z"
         style="font-style:normal;font-variant:normal;font-weight:200;font-stretch:normal;font-family:Roboto;-inkscape-font-specification:'Roboto Ultra-Light';fill:#800000"
         id="path4146" />
      <path
         d="m 614.72662,609.81067 q 0,-4.64844 2.5586,-7.59766 2.57812,-2.94922 6.67968,-2.94922 4.1211,0 6.67969,2.94922 2.57813,2.94922 2.57813,7.59766 l 0,0.82031 q 0,4.66797 -2.57813,7.61719 -2.55859,2.94922 -6.64062,2.94922 -4.1211,0 -6.69922,-2.94922 -2.57813,-2.94922 -2.57813,-7.61719 l 0,-0.82031 z m 1.05469,0.82031 q 0,3.98438 2.22656,6.75781 2.22657,2.75391 5.9961,2.75391 3.71093,0 5.9375,-2.77344 2.22656,-2.77343 2.22656,-6.73828 l 0,-0.82031 q 0,-3.88672 -2.24609,-6.67969 -2.2461,-2.8125 -5.95704,-2.8125 -3.73046,0 -5.95703,2.8125 -2.22656,2.79297 -2.22656,6.67969 l 0,0.82031 z"
         style="font-style:normal;font-variant:normal;font-weight:200;font-stretch:normal;font-family:Roboto;-inkscape-font-specification:'Roboto Ultra-Light';fill:#800000"
         id="path4148" />
      <path
         d="m 639.16022,599.65442 0.13672,4.25781 q 0.97656,-2.20703 2.8125,-3.41797 1.83593,-1.23047 4.51171,-1.23047 3.45704,0 5.17579,2.1875 1.73828,2.16797 1.73828,6.89454 l 0,12.4414 -1.05469,0 0,-12.48047 q 0,-4.39453 -1.58203,-6.1914 -1.5625,-1.79688 -4.25781,-1.79688 -3.32032,0 -5.07813,1.9336 -1.75781,1.93359 -2.24609,4.98046 l 0,13.55469 -1.05469,0 0,-10.82031 -0.0586,0 q 0,-0.37109 0,-0.74219 0.0195,-0.39062 0.0586,-0.78125 l 0,-8.78906 0.89844,0 z"
         style="font-style:normal;font-variant:normal;font-weight:200;font-stretch:normal;font-family:Roboto;-inkscape-font-specification:'Roboto Ultra-Light';fill:#800000"
         id="path4150" />
      <path
         d="m 662.32428,593.95129 0,5.70313 5.19531,0 0,1.07422 -5.19531,0 0,14.60937 q 0,2.59766 0.87891,3.71094 0.8789,1.09375 2.32421,1.09375 0.52735,0 0.9375,-0.0391 0.41016,-0.0391 1.13282,-0.13672 l 0.19531,0.95703 q -0.48828,0.15625 -1.01563,0.21484 -0.52734,0.0586 -1.1914,0.0586 -2.12891,0 -3.24219,-1.38672 -1.09375,-1.38672 -1.09375,-4.47266 l 0,-14.60937 -3.90625,0 0,-1.07422 3.90625,0 0,-5.70313 1.07422,0 z"
         style="font-style:normal;font-variant:normal;font-weight:200;font-stretch:normal;font-family:Roboto;-inkscape-font-specification:'Roboto Ultra-Light';fill:#800000"
         id="path4152" />
      <path
         d="m 670.82037,609.81067 q 0,-4.64844 2.5586,-7.59766 2.57812,-2.94922 6.67968,-2.94922 4.1211,0 6.67969,2.94922 2.57813,2.94922 2.57813,7.59766 l 0,0.82031 q 0,4.66797 -2.57813,7.61719 -2.55859,2.94922 -6.64062,2.94922 -4.1211,0 -6.69922,-2.94922 -2.57813,-2.94922 -2.57813,-7.61719 l 0,-0.82031 z m 1.05469,0.82031 q 0,3.98438 2.22656,6.75781 2.22657,2.75391 5.9961,2.75391 3.71093,0 5.9375,-2.77344 2.22656,-2.77343 2.22656,-6.73828 l 0,-0.82031 q 0,-3.88672 -2.24609,-6.67969 -2.2461,-2.8125 -5.95704,-2.8125 -3.73046,0 -5.95703,2.8125 -2.22656,2.79297 -2.22656,6.67969 l 0,0.82031 z"
         style="font-style:normal;font-variant:normal;font-weight:200;font-stretch:normal;font-family:Roboto;-inkscape-font-specification:'Roboto Ultra-Light';fill:#800000"
         id="path4154" />
    </g>
  </g>
</svg>
