<?xml version="1.0" encoding="UTF-8" standalone="no"?>
<!-- Created with Inkscape (http://www.inkscape.org/) -->

<svg
   xmlns:dc="http://purl.org/dc/elements/1.1/"
   xmlns:cc="http://creativecommons.org/ns#"
   xmlns:rdf="http://www.w3.org/1999/02/22-rdf-syntax-ns#"
   xmlns:svg="http://www.w3.org/2000/svg"
   xmlns="http://www.w3.org/2000/svg"
   xmlns:sodipodi="http://sodipodi.sourceforge.net/DTD/sodipodi-0.dtd"
   xmlns:inkscape="http://www.inkscape.org/namespaces/inkscape"
   width="15.584489mm"
   height="26.600893mm"
   viewBox="0 0 55.22063 94.255132"
   id="svg4432"
   version="1.1"
   inkscape:version="0.91 r13725"
   sodipodi:docname="logo_white.svg">
  <defs
     id="defs4434" />
  <sodipodi:namedview
     id="base"
     pagecolor="#ffffff"
     bordercolor="#666666"
     borderopacity="1.0"
     inkscape:pageopacity="0.0"
     inkscape:pageshadow="2"
     inkscape:zoom="2.8"
     inkscape:cx="-24.385713"
     inkscape:cy="37.566307"
     inkscape:document-units="px"
     inkscape:current-layer="layer1"
     showgrid="false"
     fit-margin-top="0"
     fit-margin-left="0"
     fit-margin-right="0"
     fit-margin-bottom="0"
     inkscape:window-width="1366"
     inkscape:window-height="706"
     inkscape:window-x="0"
     inkscape:window-y="0"
     inkscape:window-maximized="1" />
  <metadata
     id="metadata4437">
    <rdf:RDF>
      <cc:Work
         rdf:about="">
        <dc:format>image/svg+xml</dc:format>
        <dc:type
           rdf:resource="http://purl.org/dc/dcmitype/StillImage" />
        <dc:title></dc:title>
      </cc:Work>
    </rdf:RDF>
  </metadata>
  <g
     inkscape:label="Camada 1"
     inkscape:groupmode="layer"
     id="layer1"
     transform="translate(-362.03254,-397.64535)">
    <path
       inkscape:connector-curvature="0"
       style="font-style:normal;font-variant:normal;font-weight:normal;font-stretch:normal;font-size:80px;line-height:125%;font-family:Dyuthi;-inkscape-font-specification:Dyuthi;letter-spacing:0px;word-spacing:0px;display:inline;fill:#ffffff;fill-opacity:1;fill-rule:evenodd;stroke:#ffffff;stroke-width:1px;stroke-linecap:butt;stroke-linejoin:miter;stroke-opacity:1"
       d="m 370.70337,398.19296 6.71679,33.58789 2.82812,38.18359 0.70703,21.91992 0,-0.70703 1.76758,-32.52734 3.18164,-27.22266 8.48633,-31.46679 -23.68749,-1.76758 z"
       id="path4157-7-1-3" />
    <path
       inkscape:connector-curvature="0"
       style="font-style:normal;font-variant:normal;font-weight:normal;font-stretch:normal;font-size:80px;line-height:125%;font-family:Dyuthi;-inkscape-font-specification:Dyuthi;letter-spacing:0px;word-spacing:0px;display:inline;fill:none;fill-opacity:1;fill-rule:evenodd;stroke:#ffffff;stroke-width:3;stroke-linecap:butt;stroke-linejoin:round;stroke-miterlimit:4;stroke-dasharray:none;stroke-dashoffset:0;stroke-opacity:1"
       d="m 380.73462,489.4434 c 1.55239,0.26954 3.22026,-0.23887 4.35834,-1.32852 1.13807,-1.08964 1.71848,-2.73385 1.51666,-4.29648 -0.20493,-1.58673 -1.16211,-3.00101 -2.36347,-4.05763 -1.20136,-1.05663 -2.64053,-1.80009 -4.0752,-2.50822 -1.43467,-0.70812 -2.89301,-1.39906 -4.1631,-2.372 -1.27008,-0.97293 -2.35598,-2.2676 -2.77323,-3.81215 -0.32138,-1.18965 -0.2262,-2.47432 0.18362,-3.63647 0.40983,-1.16216 1.12441,-2.20448 1.99847,-3.07314 1.74812,-1.73733 4.07317,-2.75994 6.39372,-3.59016 2.32056,-0.83023 4.7155,-1.51603 6.85619,-2.73737 1.07035,-0.61068 2.072,-1.35565 2.89815,-2.27 0.82615,-0.91435 1.47352,-2.00319 1.79485,-3.19286 0.39601,-1.46616 0.28202,-3.05009 -0.22668,-4.48106 -0.5087,-1.43097 -1.40039,-2.71127 -2.49803,-3.76086 -2.19528,-2.09918 -5.13312,-3.24571 -8.07755,-3.99149 -2.94442,-0.74577 -5.97419,-1.14252 -8.885,-2.01028 -2.9108,-0.86775 -5.77127,-2.27484 -7.68774,-4.63131 -1.46739,-1.80429 -2.30001,-4.09625 -2.43259,-6.41813 -0.13257,-2.32188 0.42163,-4.66573 1.49111,-6.73089 2.13899,-4.13032 6.2523,-7.01434 10.70162,-8.3702 4.44932,-1.35586 9.22011,-1.31142 13.82728,-0.67208 4.60718,0.63933 9.11161,1.85534 13.66258,2.8163 4.58039,0.96717 9.2151,1.67699 13.875,2.125 l 0,0"
       id="path5615-5-4-6" />
  </g>
</svg>
